<svg width="30" height="30" viewBox="0 0 30 30" fill="none" xmlns="http://www.w3.org/2000/svg">
<g id="Phosphor icons / GearSix" opacity="0.9">
<path id="Vector (Stroke)" fill-rule="evenodd" clip-rule="evenodd" d="M15 10.3125C12.4112 10.3125 10.3125 12.4112 10.3125 15C10.3125 17.5888 12.4112 19.6875 15 19.6875C17.5888 19.6875 19.6875 17.5888 19.6875 15C19.6875 12.4112 17.5888 10.3125 15 10.3125ZM8.4375 15C8.4375 11.3756 11.3756 8.4375 15 8.4375C18.6244 8.4375 21.5625 11.3756 21.5625 15C21.5625 18.6244 18.6244 21.5625 15 21.5625C11.3756 21.5625 8.4375 18.6244 8.4375 15Z" fill="white"/>
<path id="Vector (Stroke)_2" fill-rule="evenodd" clip-rule="evenodd" d="M10.9853 2.49455C11.2428 2.41144 11.5236 2.44361 11.7557 2.58282L14.4961 4.22707C14.832 4.21206 15.1684 4.21207 15.5043 4.2271L18.2333 2.59398C18.4634 2.45629 18.7415 2.42371 18.9972 2.50449C20.788 3.0703 22.4346 4.01856 23.8228 5.28364C24.0218 5.46499 24.1332 5.72315 24.1287 5.99235L24.075 9.17778C24.2601 9.46196 24.4299 9.75578 24.5837 10.058L27.3617 11.6025C27.5956 11.7326 27.7628 11.9564 27.8211 12.2176C28.2298 14.0482 28.2341 15.9459 27.8337 17.7783C27.7762 18.0417 27.608 18.2676 27.3721 18.3982L24.5833 19.9428C24.4296 20.2447 24.2599 20.5383 24.075 20.8222L24.1287 24.0077C24.1332 24.2769 24.0217 24.535 23.8227 24.7164C22.4375 25.9787 20.798 26.9297 19.0144 27.5055C18.757 27.5886 18.4761 27.5564 18.2441 27.4172L15.5037 25.7729C15.1678 25.7879 14.8314 25.7879 14.4955 25.7729L11.7664 27.406C11.5363 27.5437 11.2583 27.5763 11.0026 27.4955C9.21171 26.9297 7.56517 25.9814 6.177 24.7164C5.97799 24.535 5.86656 24.2768 5.87111 24.0076L5.92479 20.8294C5.74083 20.5423 5.5712 20.2462 5.41654 19.9423L2.63807 18.3975C2.40416 18.2674 2.23698 18.0436 2.17866 17.7824C1.76995 15.9519 1.76564 14.0542 2.16602 12.2218C2.22359 11.9583 2.3918 11.7324 2.62769 11.6018L5.41642 10.0572C5.57016 9.75528 5.73984 9.46172 5.92473 9.17778L5.87111 5.99235C5.86658 5.72313 5.97801 5.46497 6.17702 5.28362C7.56228 4.0213 9.20181 3.07029 10.9853 2.49455ZM7.75314 6.39454L7.80444 9.44125C7.80776 9.63864 7.74869 9.83203 7.63565 9.99387C7.38419 10.3539 7.16404 10.7348 6.97761 11.1324C6.8938 11.3111 6.75571 11.4588 6.58301 11.5545L3.91645 13.0314C3.68321 14.3336 3.68645 15.6672 3.92602 16.9683L6.58435 18.4463C6.75574 18.5415 6.89294 18.6882 6.97663 18.8655C7.16714 19.2693 7.38935 19.6572 7.64117 20.0259C7.75067 20.1861 7.80771 20.3764 7.80444 20.5705L7.75317 23.6054C8.76649 24.4614 9.92528 25.1286 11.1743 25.5753L13.7802 24.0159C13.9452 23.9171 14.1366 23.8715 14.3285 23.8852C14.7755 23.9172 15.2242 23.9172 15.6713 23.8852C15.8635 23.8715 16.0553 23.9173 16.2205 24.0164L18.8348 25.585C20.0797 25.1312 21.2348 24.4611 22.2466 23.6055L22.1953 20.5588C22.192 20.3614 22.2511 20.168 22.3641 20.0061C22.6156 19.6461 22.8357 19.2652 23.0221 18.8676C23.106 18.6889 23.2441 18.5412 23.4168 18.4455L26.0833 16.9686C26.3166 15.6664 26.3133 14.3328 26.0737 13.0317L23.4154 11.5538C23.2433 11.4581 23.1057 11.3106 23.0221 11.1324C22.8357 10.7348 22.6156 10.3539 22.3641 9.99387C22.2511 9.83203 22.192 9.63864 22.1953 9.44125L22.2466 6.39466C21.2333 5.53863 20.0745 4.87139 18.8254 4.42473L16.2196 5.98415C16.0545 6.08291 15.8631 6.12852 15.6713 6.1148C15.2242 6.08283 14.7755 6.08283 14.3285 6.1148C14.1363 6.12855 13.9445 6.08273 13.7793 5.98359L11.165 4.41503C9.92003 4.86877 8.76496 5.53892 7.75314 6.39454Z" fill="white"/>
</g>
</svg>
