<svg width="30" height="30" viewBox="0 0 30 30" fill="none" xmlns="http://www.w3.org/2000/svg">
<g id="Friends">
<path id="Vector" d="M9 15C11.2091 15 13 13.2091 13 11C13 8.79086 11.2091 7 9 7C6.79086 7 5 8.79086 5 11C5 13.2091 6.79086 15 9 15Z" stroke="#EFEEEE" stroke-width="2"/>
<path id="Vector_2" d="M17 26C17 24.949 16.793 23.9083 16.3907 22.9373C15.9885 21.9664 15.3989 21.0842 14.6558 20.3413C13.9126 19.5983 13.0303 19.0092 12.0594 18.6075C11.0886 18.2057 10.048 17.9993 8.99737 18C6.87634 18 4.84217 18.8429 3.34238 20.3431C1.84258 21.8434 1 23.8783 1 26H17Z" stroke="#EFEEEE" stroke-width="2"/>
<path id="Vector_3" d="M21 17C22.6569 17 24 15.6569 24 14C24 12.3431 22.6569 11 21 11C19.3431 11 18 12.3431 18 14C18 15.6569 19.3431 17 21 17Z" stroke="#EFEEEE" stroke-width="2"/>
<path id="Vector_4" d="M20.7847 26H27C27 25.2108 26.859 24.4294 26.5851 23.7005C26.3112 22.9716 25.9097 22.3095 25.4037 21.7522C24.8977 21.1948 24.2971 20.7532 23.6363 20.4525C22.9755 20.1518 22.2674 19.9981 21.5527 20C20.6626 19.9987 19.7859 20.2395 19 20.701" stroke="#EFEEEE" stroke-width="2"/>
</g>
</svg>
