<svg width="40" height="40" viewBox="0 0 40 40" fill="none" xmlns="http://www.w3.org/2000/svg">
<g id="game-control-2-svgrepo-com 1">
<path id="Vector" fill-rule="evenodd" clip-rule="evenodd" d="M21.25 10V6.25H18.75V10H15C10.1675 10 6.25 13.9175 6.25 18.75V29.8483C6.25 32.0032 7.99683 33.75 10.1516 33.75C11.1864 33.75 12.1788 33.339 12.9105 32.6072L18.0178 27.5H21.9822L27.0895 32.6072C27.8212 33.339 28.8135 33.75 29.8483 33.75C32.0032 33.75 33.75 32.0032 33.75 29.8483V18.75C33.75 13.9175 29.8325 10 25 10H21.25ZM31.25 18.75C31.25 15.2982 28.4518 12.5 25 12.5H15C11.5482 12.5 8.75 15.2982 8.75 18.75V29.8483C8.75 30.6225 9.37753 31.25 10.1516 31.25C10.5234 31.25 10.8799 31.1023 11.1428 30.8395L16.9822 25H23.0178L28.8572 30.8395C29.1202 31.1023 29.4767 31.25 29.8483 31.25C30.6225 31.25 31.25 30.6225 31.25 29.8483V18.75ZM11.25 21.25V18.75H13.75V16.25H16.25V18.75H18.75V21.25H16.25V23.75H13.75V21.25H11.25ZM25 18.125C25 19.1605 24.1605 20 23.125 20C22.0895 20 21.25 19.1605 21.25 18.125C21.25 17.0895 22.0895 16.25 23.125 16.25C24.1605 16.25 25 17.0895 25 18.125ZM26.875 23.75C27.9105 23.75 28.75 22.9105 28.75 21.875C28.75 20.8395 27.9105 20 26.875 20C25.8395 20 25 20.8395 25 21.875C25 22.9105 25.8395 23.75 26.875 23.75Z" fill="#080341"/>
</g>
</svg>
