<svg width="20" height="21" viewBox="0 0 20 21" fill="none" xmlns="http://www.w3.org/2000/svg">
<g id="add-message 1">
<g id="Group 238857">
<path id="Vector" d="M7.30774 9.80127H12.6158" stroke="#FFFEFE" stroke-width="2" stroke-miterlimit="10"/>
<path id="Vector_2" d="M9.96179 7.14722V12.4553" stroke="#FFFEFE" stroke-width="2" stroke-miterlimit="10"/>
<path id="Vector_3" d="M2.66663 6.48729V13.1154C2.66663 13.8193 2.94625 14.4944 3.44398 14.9921C3.9417 15.4899 4.61677 15.7695 5.32066 15.7695H6.64768V17.7565L10.6565 15.7695H14.6376C15.3415 15.7695 16.0165 15.4899 16.5143 14.9921C17.012 14.4944 17.2916 13.8193 17.2916 13.1154V6.48729C17.2916 5.7834 17.012 5.10833 16.5143 4.6106C16.0165 4.11287 15.3415 3.83325 14.6376 3.83325H5.32066C4.61677 3.83325 3.9417 4.11287 3.44398 4.6106C2.94625 5.10833 2.66663 5.7834 2.66663 6.48729Z" stroke="#FFFEFE" stroke-width="2" stroke-miterlimit="10"/>
</g>
</g>
</svg>
