<svg width="30" height="30" viewBox="0 0 30 30" fill="none" xmlns="http://www.w3.org/2000/svg">
<g id="Phosphor icons / GameController" opacity="0.9">
<path id="Vector (Stroke)" fill-rule="evenodd" clip-rule="evenodd" d="M16.875 12.6562C16.875 12.1385 17.2947 11.7188 17.8125 11.7188H21.5625C22.0803 11.7188 22.5 12.1385 22.5 12.6562C22.5 13.174 22.0803 13.5938 21.5625 13.5938H17.8125C17.2947 13.5938 16.875 13.174 16.875 12.6562Z" fill="white"/>
<path id="Vector (Stroke)_2" fill-rule="evenodd" clip-rule="evenodd" d="M7.5 12.6562C7.5 12.1385 7.91973 11.7188 8.4375 11.7188H12.1875C12.7053 11.7188 13.125 12.1385 13.125 12.6562C13.125 13.174 12.7053 13.5938 12.1875 13.5938H8.4375C7.91973 13.5938 7.5 13.174 7.5 12.6562Z" fill="white"/>
<path id="Vector (Stroke)_3" fill-rule="evenodd" clip-rule="evenodd" d="M10.3125 9.84375C10.8303 9.84375 11.25 10.2635 11.25 10.7812V14.5312C11.25 15.049 10.8303 15.4688 10.3125 15.4688C9.79473 15.4688 9.375 15.049 9.375 14.5312V10.7812C9.375 10.2635 9.79473 9.84375 10.3125 9.84375Z" fill="white"/>
<path id="Vector (Stroke)_4" fill-rule="evenodd" clip-rule="evenodd" d="M20.1562 5.58984C22.021 5.58984 23.8095 6.33063 25.1281 7.64925C26.4467 8.96786 27.1875 10.7563 27.1875 12.6211C27.1875 14.4859 26.4467 16.2743 25.1281 17.5929C23.81 18.911 22.0225 19.6517 20.1585 19.6523C20.1578 19.6523 20.157 19.6523 20.1562 19.6523L12.9572 19.6856L8.17209 24.9802L7.47656 24.3516L8.14083 25.0131C7.50646 25.6501 6.68519 26.0678 5.79679 26.2053C4.90838 26.3427 3.99929 26.1928 3.20205 25.7774C2.40482 25.362 1.76114 24.7027 1.36486 23.8958C0.968582 23.0889 0.840429 22.1764 0.999087 21.2916L1.0017 21.2776L2.9221 11.4297C3.21209 9.80603 4.06274 8.33555 5.32588 7.27471C6.59094 6.21225 8.18922 5.62832 9.84122 5.625M20.1562 5.58984V6.52734V5.58984ZM20.1562 7.46484L9.84553 7.5C8.63313 7.50231 7.46014 7.93079 6.53173 8.71051C5.60332 9.49023 4.9786 10.5715 4.76683 11.7653L3.84375 11.6016L4.76391 11.781L2.84351 21.6289C2.75713 22.1185 2.82866 22.6229 3.04786 23.0693C3.26802 23.5176 3.62562 23.8838 4.06853 24.1146C4.51143 24.3454 5.01649 24.4287 5.51005 24.3523C5.99674 24.277 6.44717 24.0503 6.79753 23.7047L11.8435 18.1214C12.0203 17.9258 12.2712 17.8137 12.5347 17.8125L20.1519 17.7774L20.1562 17.7773C21.5238 17.7773 22.8353 17.2341 23.8023 16.2671C24.7692 15.3001 25.3125 13.9886 25.3125 12.6211C25.3125 11.2536 24.7692 9.94206 23.8023 8.97507C22.8356 8.00845 21.5248 7.46525 20.1578 7.46484C20.1573 7.46484 20.1568 7.46484 20.1562 7.46484Z" fill="white"/>
<path id="Vector (Stroke)_5" fill-rule="evenodd" clip-rule="evenodd" d="M25.9774 10.6461C26.4857 10.5473 26.9778 10.8793 27.0765 11.3875L28.9984 21.2781L29.0009 21.2915C29.1596 22.1764 29.0314 23.0888 28.6351 23.8957C28.2389 24.7026 27.5952 25.3619 26.7979 25.7773C26.0007 26.1928 25.0916 26.3427 24.2032 26.2052C23.3148 26.0677 22.4935 25.65 21.8592 25.013L22.5234 24.3515L21.8266 24.9786L16.7641 19.3536C16.4177 18.9688 16.4489 18.376 16.8338 18.0297C17.2186 17.6833 17.8114 17.7145 18.1578 18.0993L23.2031 23.7052C23.5534 24.0505 24.0035 24.277 24.49 24.3522C24.9835 24.4286 25.4886 24.3453 25.9315 24.1145C26.3744 23.8837 26.732 23.5175 26.9521 23.0692C27.1714 22.6228 27.2429 22.1182 27.1564 21.6286L25.236 11.7452C25.1372 11.2369 25.4692 10.7448 25.9774 10.6461Z" fill="white"/>
</g>
</svg>
