<svg width="30" height="30" viewBox="0 0 30 30" fill="none" xmlns="http://www.w3.org/2000/svg">
<g id="Phosphor icons / Trophy" opacity="0.9">
<path id="Vector (Stroke)" fill-rule="evenodd" clip-rule="evenodd" d="M6.17417 5.23667C6.52581 4.88504 7.00272 4.6875 7.5 4.6875H22.5C22.9973 4.6875 23.4742 4.88504 23.8258 5.23667C24.1775 5.58831 24.375 6.06522 24.375 6.5625V13.125C24.375 14.3616 24.1304 15.586 23.6552 16.7277C23.18 17.8694 22.4836 18.9058 21.6061 19.7772C20.7287 20.6486 19.6875 21.3378 18.5425 21.8051C17.3976 22.2724 16.1715 22.5086 14.9349 22.5L14.9343 22.5C9.75265 22.4608 5.625 18.1724 5.625 13.0195V6.5625C5.625 6.06522 5.82254 5.58831 6.17417 5.23667ZM22.5 6.5625L7.5 6.5625L7.5 13.0195C7.5 17.1713 10.8255 20.5939 14.9485 20.625C15.9376 20.6318 16.9183 20.4429 17.834 20.0691C18.75 19.6953 19.583 19.1439 20.2849 18.4468C20.9869 17.7497 21.544 16.9206 21.9242 16.0072C22.3043 15.0939 22.5 14.1143 22.5 13.125V6.5625Z" fill="white"/>
<path id="Vector (Stroke)_2" fill-rule="evenodd" clip-rule="evenodd" d="M10.3125 26.25C10.3125 25.7322 10.7322 25.3125 11.25 25.3125H18.75C19.2678 25.3125 19.6875 25.7322 19.6875 26.25C19.6875 26.7678 19.2678 27.1875 18.75 27.1875H11.25C10.7322 27.1875 10.3125 26.7678 10.3125 26.25Z" fill="white"/>
<path id="Vector (Stroke)_3" fill-rule="evenodd" clip-rule="evenodd" d="M15 20.625C15.5178 20.625 15.9375 21.0447 15.9375 21.5625V26.25C15.9375 26.7678 15.5178 27.1875 15 27.1875C14.4822 27.1875 14.0625 26.7678 14.0625 26.25V21.5625C14.0625 21.0447 14.4822 20.625 15 20.625Z" fill="white"/>
<path id="Vector (Stroke)_4" fill-rule="evenodd" clip-rule="evenodd" d="M22.5 8.4375C22.5 7.91973 22.9197 7.5 23.4375 7.5H27.1875C27.6848 7.5 28.1617 7.69754 28.5133 8.04917C28.865 8.40081 29.0625 8.87772 29.0625 9.375V11.25C29.0625 12.4932 28.5686 13.6855 27.6896 14.5646C26.8105 15.4436 25.6182 15.9375 24.375 15.9375H23.2266C22.7088 15.9375 22.2891 15.5178 22.2891 15C22.2891 14.4822 22.7088 14.0625 23.2266 14.0625H24.375C25.1209 14.0625 25.8363 13.7662 26.3637 13.2387C26.8912 12.7113 27.1875 11.9959 27.1875 11.25L27.1875 9.375L23.4375 9.375C22.9197 9.375 22.5 8.95527 22.5 8.4375Z" fill="white"/>
<path id="Vector (Stroke)_5" fill-rule="evenodd" clip-rule="evenodd" d="M1.47496 8.04917C1.82659 7.69754 2.3035 7.5 2.80078 7.5H6.55078C7.06855 7.5 7.48828 7.91973 7.48828 8.4375C7.48828 8.95527 7.06855 9.375 6.55078 9.375L2.80078 9.375V11.25C2.80078 11.9959 3.0971 12.7113 3.62454 13.2387C4.15199 13.7662 4.86736 14.0625 5.61328 14.0625H6.79687C7.31464 14.0625 7.73437 14.4822 7.73437 15C7.73437 15.5178 7.31464 15.9375 6.79687 15.9375H5.61328C4.37008 15.9375 3.17779 15.4436 2.29872 14.5646C1.41964 13.6855 0.925781 12.4932 0.925781 11.25V9.375C0.925781 8.87772 1.12333 8.40081 1.47496 8.04917Z" fill="white"/>
</g>
</svg>
