<svg width="30" height="30" viewBox="0 0 30 30" fill="none" xmlns="http://www.w3.org/2000/svg">
<g id="search ">
<path id="Icon" fill-rule="evenodd" clip-rule="evenodd" d="M8.54786 9.60259L9.33701 14.1402H14.2062C14.6204 14.1402 14.9562 14.476 14.9562 14.8902C14.9562 15.3044 14.6204 15.6402 14.2062 15.6402H9.33701L8.54786 20.1777L20.8856 14.8902L8.54786 9.60259ZM7.94492 14.8902L7.01985 9.57101C6.94507 9.141 7.08421 8.70149 7.39284 8.39286C7.78062 8.00508 8.36544 7.89245 8.86951 8.10848L22.2719 13.8523C22.687 14.0303 22.9562 14.4385 22.9562 14.8902C22.9562 15.3419 22.687 15.7501 22.2719 15.928L8.86951 21.6718C8.36544 21.8879 7.78062 21.7752 7.39284 21.3875C7.08421 21.0788 6.94507 20.6393 7.01985 20.2093L7.94492 14.8902Z" fill="black"/>
</g>
</svg>
